<svg width="45" height="45" viewBox="0 0 45 45" fill="none" xmlns="http://www.w3.org/2000/svg">
<circle cx="22.5" cy="22.5" r="22" fill="#F708BB" stroke="white"/>
<path d="M31.9203 26.6112C31.4522 27.0993 30.6588 27.1323 30.1482 26.6848L21.75 19.3245L13.3518 26.6848C12.8837 27.095 12.178 27.1015 11.7031 26.7237L11.5797 26.6112C11.1116 26.123 11.1461 25.3646 11.6567 24.9171L20.9025 16.8152C20.9084 16.81 20.9143 16.8049 20.9203 16.7998L20.8254 16.8888C20.8781 16.8339 20.9348 16.7848 20.9948 16.7414C21.0171 16.7255 21.0396 16.7103 21.0625 16.696C21.0857 16.6813 21.1096 16.6674 21.1339 16.6542C21.1561 16.6423 21.1781 16.6313 21.2003 16.6209C21.2266 16.6087 21.2538 16.5972 21.2813 16.5866C21.3056 16.5772 21.3302 16.5685 21.3551 16.5607C21.3797 16.553 21.4042 16.546 21.429 16.5398C21.4564 16.5328 21.4842 16.5267 21.5121 16.5216C21.5407 16.5164 21.5696 16.5121 21.5985 16.5088C21.6195 16.5063 21.641 16.5043 21.6624 16.5029C21.692 16.501 21.7214 16.5 21.7508 16.5C21.7795 16.5 21.8084 16.501 21.8373 16.5029C21.859 16.5043 21.8805 16.5063 21.9018 16.5087C21.9304 16.5121 21.9593 16.5164 21.988 16.5217C22.0158 16.5267 22.0436 16.5328 22.0711 16.5397C22.0958 16.546 22.1203 16.553 22.1447 16.5607C22.1698 16.5685 22.1944 16.5772 22.2188 16.5866C22.2462 16.5972 22.2734 16.6087 22.3002 16.6212C22.3219 16.6313 22.3439 16.6423 22.3656 16.6541C22.3904 16.6674 22.4143 16.6813 22.4379 16.6961C22.4604 16.7103 22.4829 16.7255 22.505 16.7415C22.5652 16.7848 22.6219 16.8339 22.6746 16.8888L22.5797 16.7998C22.5857 16.8049 22.5916 16.81 22.5975 16.8152L31.8433 24.9171C32.3539 25.3646 32.3884 26.123 31.9203 26.6112Z" fill="white"/>
</svg>
