
<svg width="24" height="24" viewBox="0 0 24 24" fill="none" xmlns="http://www.w3.org/2000/svg">
<path d="M12 2C15.866 2 19 5.20508 19 9.15874C19 10.8228 18.4448 12.3542 17.5135 13.5699L12.8625 21.4948C12.7761 21.6421 12.6534 21.7648 12.506 21.8513C12.0637 22.1108 11.5038 21.9917 11.2023 21.592L11.1375 21.4948L6.49103 13.5759C5.557 12.3593 5 10.8255 5 9.15874C5 5.20508 8.13401 2 12 2ZM12 5C9.79086 5 8 6.79086 8 9C8 11.2091 9.79086 13 12 13C14.2091 13 16 11.2091 16 9C16 6.79086 14.2091 5 12 5Z" fill="#F708BB"/>
</svg>
